<?xml version="1.0" standalone="no"?><!DOCTYPE svg PUBLIC "-//W3C//DTD SVG 1.1//EN" "http://www.w3.org/Graphics/SVG/1.1/DTD/svg11.dtd"><svg t="1732528241513" class="icon" viewBox="0 0 1024 1024" version="1.1" xmlns="http://www.w3.org/2000/svg" p-id="4281" xmlns:xlink="http://www.w3.org/1999/xlink" width="300" height="300"><path d="M493.9 691.8v-565c0-10 8.1-18.1 18.1-18.1 10 0 18.1 8.1 18.1 18.1v565c0 10-8.1 18.1-18.1 18.1-10 0-18.1-8.1-18.1-18.1z" fill="" p-id="4282"></path><path d="M499.2 704.6l-97.5-97.5c-7.1-7.1-7.1-18.6 0-25.7 7.1-7.1 18.6-7.1 25.7 0l97.5 97.5c7.1 7.1 7.1 18.6 0 25.7-7.2 7.1-18.6 7.1-25.7 0z" fill="" p-id="4283"></path><path d="M499.2 678.9l97.5-97.5c7.1-7.1 18.6-7.1 25.7 0 7.1 7.1 7.1 18.6 0 25.7l-97.5 97.5c-7.1 7.1-18.6 7.1-25.7 0-7.1-7.1-7.1-18.6 0-25.7z" fill="" p-id="4284"></path><path d="M803.4 466.7h-83c-10 0-18.1 8.1-18.1 18.1 0 10 8.1 18.1 18.1 18.1h83c60.1 0 108.8 48.7 108.8 108.8v159.5c0 60.1-48.7 108.8-108.8 108.8H220.6c-60.1 0-108.8-48.7-108.8-108.8V611.8c0-60.1 48.7-108.8 108.8-108.8h83c10 0 18.1-8.1 18.1-18.1 0-10-8.1-18.1-18.1-18.1h-83c-80.1 0-145.1 65-145.1 145.1v159.5c0 80.1 65 145.1 145.1 145.1h582.7c80.1 0 145.1-65 145.1-145.1V611.8c0.1-80.2-64.9-145.1-145-145.1z" fill="" p-id="4285"></path></svg>